<svg width="666" height="564" viewBox="0 0 666 564" fill="none" xmlns="http://www.w3.org/2000/svg">
<path d="M474.141 40.7986C516.793 70.8957 548.469 113.401 582.785 161.583C617.101 209.632 653.918 263.49 663.504 325.136C673.09 386.783 655.307 456.217 605.986 486.314C556.666 516.279 475.808 507.039 405.787 521.295C335.627 535.684 276.443 573.701 232.54 561.689C188.638 549.544 160.157 487.502 115.005 438.66C69.9914 389.819 8.44505 354.178 0.803857 310.748C-6.69841 267.186 39.7045 215.573 81.9394 176.631C124.174 137.69 162.38 111.421 201.976 80.004C241.571 48.5869 282.556 12.0217 330.07 2.51732C377.445 -6.855 431.35 10.8336 474.141 40.7986Z" fill="url(#paint0_linear)"/>
<defs>
<linearGradient id="paint0_linear" x1="226.427" y1="71.8197" x2="474.955" y2="504.829" gradientUnits="userSpaceOnUse">
<stop offset="0.411458" stop-color="#EB5BC3" stop-opacity="0.46"/>
<stop offset="1" stop-color="#4C20C7" stop-opacity="0.52"/>
</linearGradient>
</defs>
</svg>
